<svg xmlns="http://www.w3.org/2000/svg" viewBox="0 0 100 100" role="img" aria-label="SpendSnap AI">
  <defs>
    <linearGradient id="badge" x1="0" y1="0" x2="1" y2="1">
      <stop offset="0" stop-color="#E7C79A"/>
      <stop offset="0.5" stop-color="#B98B4E"/>
      <stop offset="1" stop-color="#7A5233"/>
    </linearGradient>
    <linearGradient id="letter" x1="0" y1="0" x2="0.7" y2="1">
      <stop offset="0" stop-color="#FFF8EA"/>
      <stop offset="1" stop-color="#EAC284"/>
    </linearGradient>
    <filter id="shadow" x="-30%" y="-30%" width="160%" height="160%">
      <feDropShadow dx="0" dy="3" stdDeviation="4" flood-color="#5E3E27" flood-opacity="0.35"/>
    </filter>
  </defs>
  <rect x="2" y="2" width="96" height="96" rx="26" fill="url(#badge)"/>
  <rect x="2.5" y="2.5" width="95" height="95" rx="25.5" fill="none" stroke="#FFFFFF" stroke-opacity="0.2" stroke-width="1.5"/>
  <path d="M 64,28 C 64,21 58,17 50,17 C 40,17 34,22 34,30 C 34,38 41,43 51,48 C 59,52 66,56 66,65 C 66,73 59,79 49,79 C 42,79 36,75 36,69"
        fill="none" stroke="url(#letter)" stroke-width="13.5" stroke-linecap="round" stroke-linejoin="round" filter="url(#shadow)"/>
</svg>
